<?xml version="1.0" encoding="utf-8"?>
<!-- Generator: Adobe Illustrator 22.1.0, SVG Export Plug-In . SVG Version: 6.00 Build 0)  -->
<svg version="1.1" baseProfile="tiny" id="Layer_1" xmlns="http://www.w3.org/2000/svg" xmlns:xlink="http://www.w3.org/1999/xlink"
	 x="0px" y="0px" viewBox="0 0 32 32" xml:space="preserve">
<path d="M16.3,30.7L2.2,17.7C0.8,15.9,0,13.7,0,11.5C0,6.3,4.3,2,9.5,2c2.4,0,4.8,0.9,6.5,2.5C17.7,2.9,20.1,2,22.5,2
	c5.2,0,9.5,4.3,9.5,9.5c0,2.2-0.8,4.4-2.2,6.2l-0.1,0.1l-11,10l-1.3-1.5l10.9-9.9c1.1-1.3,1.7-3.1,1.7-4.8C30,7.4,26.6,4,22.5,4
	c-2.2,0-4.3,1-5.7,2.6L16,7.6l-0.8-0.9C13.8,5,11.7,4,9.5,4C5.4,4,2,7.4,2,11.5c0,1.7,0.6,3.5,1.7,4.8l14,12.9L16.3,30.7L16.3,30.7z
	"/>
<path d="M15.2,24.2L5.1,14.9c-0.7-1-1.1-2.2-1.1-3.4C4,8.5,6.5,6,9.5,6v2C7.6,8,6,9.6,6,11.5c0,0.7,0.2,1.5,0.7,2.1l9.9,9.2
	L15.2,24.2z M19.4,10l-1.8-1c0.7-1.3,1.9-2.2,3.3-2.6c1.4-0.4,2.9-0.2,4.2,0.5l-1,1.8c-0.8-0.4-1.8-0.6-2.7-0.3
	C20.6,8.6,19.9,9.2,19.4,10z"/>
</svg>
