<svg xmlns="http://www.w3.org/2000/svg" xmlns:xlink="http://www.w3.org/1999/xlink"><symbol id="comment" viewBox="0 0 32 32">
<path d="M16,14h12v2H16V14z"/>
<path d="M16,18h8v2h-8V18z"/>
<path d="M10,20H0V4h20v3h-2V6H2v12h8V20z"/>
<path d="M4,9h6v2H4V9z"/>
<path d="M4,13h6v2H4V13z"/>
<path d="M12,31V9h20v16H19v-2h11V11H14v14l1.2-1.6l1.6,1.2L12,31z"/>
</symbol><symbol id="heart" viewBox="0 0 32 32">
<path d="M16.3,30.7L2.2,17.7C0.8,15.9,0,13.7,0,11.5C0,6.3,4.3,2,9.5,2c2.4,0,4.8,0.9,6.5,2.5C17.7,2.9,20.1,2,22.5,2
	c5.2,0,9.5,4.3,9.5,9.5c0,2.2-0.8,4.4-2.2,6.2l-0.1,0.1l-11,10l-1.3-1.5l10.9-9.9c1.1-1.3,1.7-3.1,1.7-4.8C30,7.4,26.6,4,22.5,4
	c-2.2,0-4.3,1-5.7,2.6L16,7.6l-0.8-0.9C13.8,5,11.7,4,9.5,4C5.4,4,2,7.4,2,11.5c0,1.7,0.6,3.5,1.7,4.8l14,12.9L16.3,30.7L16.3,30.7z
	"/>
<path d="M15.2,24.2L5.1,14.9c-0.7-1-1.1-2.2-1.1-3.4C4,8.5,6.5,6,9.5,6v2C7.6,8,6,9.6,6,11.5c0,0.7,0.2,1.5,0.7,2.1l9.9,9.2
	L15.2,24.2z M19.4,10l-1.8-1c0.7-1.3,1.9-2.2,3.3-2.6c1.4-0.4,2.9-0.2,4.2,0.5l-1,1.8c-0.8-0.4-1.8-0.6-2.7-0.3
	C20.6,8.6,19.9,9.2,19.4,10z"/>
</symbol><symbol id="search" viewBox="0 0 32 32">
<path d="M13,26C5.8,26,0,20.2,0,13S5.8,0,13,0s13,5.8,13,13S20.2,26,13,26z M13,2C6.9,2,2,6.9,2,13c0,6.1,4.9,11,11,11
	c6.1,0,11-4.9,11-11C24,6.9,19.1,2,13,2z"/>
<path d="M29,32c-0.8,0-1.5-0.3-2.1-0.9l-5.6-5.4l1.4-1.4l5.6,5.4c0.4,0.4,1,0.4,1.4,0c0.2-0.2,0.3-0.4,0.3-0.7
	c0-0.3-0.1-0.5-0.3-0.7l-5.4-5.6l1.4-1.4l5.4,5.6c0.6,0.6,0.9,1.3,0.9,2.1c0,0.8-0.3,1.6-0.9,2.1C30.5,31.7,29.8,32,29,32z"/>
<path d="M7.3,18.7c-3.1-3.1-3.1-8.2,0-11.3l1.4,1.4c-2.3,2.3-2.3,6.1,0,8.5L7.3,18.7z"/>
</symbol></svg>